<svg width="24" height="24" xmlns="http://www.w3.org/2000/svg"><g fill="none" fill-rule="evenodd"><rect fill="#925FF0" width="24" height="24" rx="5.785"/><path d="m16.482 10.352-3.18 1.85-1.86 1.047 4.252 2.481.788-.463v-4.915Zm-6.237 4.274-1.913 1.128 3.787 2.209 1.818-1.182-3.692-2.155Zm1.636-8.184-1.818 1.182 3.692 2.155 1.913-1.128-3.787-2.21Zm.678 4.714L8.306 8.675l-.788.462v4.916l3.18-1.85 1.86-1.047Zm5.6 5.186-6.072 3.575a.116.116 0 0 1-.117 0l-6.13-3.575a.116.116 0 0 1-.057-.1v-8.08c0-.04.022-.078.057-.1l6.073-3.575a.116.116 0 0 1 .117 0l6.13 3.576c.035.02.057.059.057.1v8.08a.116.116 0 0 1-.057.099Z" fill="#FFF" fill-rule="nonzero"/></g></svg>