<?xml version="1.0" encoding="UTF-8"?>
<svg width="24px" height="24px" viewBox="0 0 24 24" version="1.1" xmlns="http://www.w3.org/2000/svg" xmlns:xlink="http://www.w3.org/1999/xlink">
    <!-- Generator: Sketch 53.2 (72643) - https://sketchapp.com -->
    <title>favicon</title>
    <desc>Created with Sketch.</desc>
    <g id="Page-1" stroke="none" stroke-width="1" fill="none" fill-rule="evenodd">
        <g id="favicon" fill-rule="nonzero">
            <rect id="Rectangle" fill="#735FFA" x="0" y="0" width="24" height="24" rx="5.785"></rect>
            <path d="M16.482,10.352 L13.302,12.202 L11.442,13.249 L15.694,15.73 L16.482,15.267 L16.482,10.352 Z M10.245,14.626 L8.332,15.754 L12.119,17.963 L13.937,16.781 L10.245,14.626 Z M11.881,6.442 L10.063,7.624 L13.755,9.779 L15.668,8.651 L11.881,6.441 L11.881,6.442 Z M12.559,11.156 L8.306,8.675 L7.518,9.137 L7.518,14.053 L10.698,12.203 L12.558,11.156 L12.559,11.156 Z M18.159,16.342 L12.087,19.917 C12.0508562,19.9381085 12.0061438,19.9381085 11.97,19.917 L5.84,16.342 C5.80463566,16.3211089 5.78295573,16.283074 5.783,16.242 L5.783,8.162 C5.783,8.122 5.805,8.084 5.84,8.062 L11.913,4.487 C11.9491438,4.46589148 11.9938562,4.46589148 12.03,4.487 L18.16,8.063 C18.195,8.083 18.217,8.122 18.217,8.163 L18.217,16.243 C18.2166922,16.2837168 18.1950585,16.3212911 18.16,16.342 L18.159,16.342 Z" id="Shape" fill="#FFFFFF"></path>
        </g>
    </g>
</svg>