<?xml version="1.0" encoding="UTF-8"?>
<svg width="79px" height="24px" viewBox="0 0 79 24" version="1.1" xmlns="http://www.w3.org/2000/svg" xmlns:xlink="http://www.w3.org/1999/xlink">
    <title>Group</title>
    <defs>
        <linearGradient x1="49.9998705%" y1="-2.04330866e-08%" x2="49.9998705%" y2="99.9999464%" id="linearGradient-1">
            <stop stop-color="#9A77FF" offset="0%"></stop>
            <stop stop-color="#735FFA" offset="100%"></stop>
        </linearGradient>
    </defs>
    <g id="Brand" stroke="none" stroke-width="1" fill="none" fill-rule="evenodd">
        <g id="Group" fill-rule="nonzero">
            <path d="M30.101138,18.1047403 L30.101138,12.8716931 C30.101138,12.2047935 30.2727475,11.6867437 30.6160162,11.3175939 C30.9592848,10.9483941 31.4209357,10.7637942 32.0009688,10.7637942 C32.5810019,10.7637942 33.0426528,10.9483941 33.3859214,11.3175939 C33.7291901,11.6867437 33.9008493,12.2047935 33.9008493,12.8716931 L33.9008493,18.1047403 C33.9008493,18.2038902 33.980715,18.2842902 34.0792675,18.2842902 L36.7408297,18.2842902 C36.8393821,18.2842902 36.9192976,18.2038902 36.9192976,18.1047403 L36.9192976,12.4608433 C36.9192976,11.138944 36.5760289,10.0998946 35.8894419,9.34369499 C35.2029045,8.5874954 34.2914311,8.2093456 33.1550712,8.2093456 C32.4921904,8.2093456 31.8944149,8.34034553 31.3617446,8.60234539 C30.8290743,8.86434525 30.4088722,9.21564506 30.101138,9.65629482 L30.101138,5.24494719 C30.101138,5.14579724 30.0212226,5.06544728 29.9226701,5.06544728 L27.2433655,5.06544728 C27.1448131,5.06544728 27.0648976,5.14579724 27.0648976,5.24494719 L27.0648976,18.1047403 C27.0648976,18.2038902 27.1448131,18.2842902 27.2433655,18.2842902 L29.9226701,18.2842902 C30.0212226,18.2842902 30.101138,18.2038902 30.101138,18.1047403 Z M42.7786705,18.3914401 C43.417845,18.3914401 44.0008103,18.2574902 44.5275664,17.9895404 C45.0543225,17.7215905 45.4715925,17.3672907 45.7793266,16.9266409 L45.7793266,18.1047403 C45.7793266,18.2038902 45.8592421,18.2842902 45.9577945,18.2842902 L48.6370991,18.2842902 C48.7356516,18.2842902 48.815567,18.2038902 48.815567,18.1047403 L48.815567,8.49609545 C48.815567,8.3969455 48.7356516,8.31654554 48.6370991,8.31654554 L45.9577945,8.31654554 C45.8592421,8.31654554 45.7793266,8.3969455 45.7793266,8.49609545 L45.7793266,13.7291426 C45.7793266,14.3960423 45.6077171,14.914042 45.2644485,15.2832418 C44.9211798,15.6523916 44.4536148,15.8369915 43.8617534,15.8369915 C43.2817203,15.8369915 42.8200695,15.6523916 42.4768008,15.2832418 C42.1335321,14.914042 41.9618729,14.3960423 41.9618729,13.7291426 L41.9618729,8.49609545 C41.9618729,8.3969455 41.8820072,8.31654554 41.7834547,8.31654554 L39.1218926,8.31654554 C39.0233401,8.31654554 38.9434247,8.3969455 38.9434247,8.49609545 L38.9434247,14.1399924 C38.9434247,15.009342 39.1032556,15.7655416 39.422818,16.4086412 C39.7424301,17.0516909 40.1922527,17.5429406 40.7722361,17.8823404 C41.3522692,18.2217402 42.0210641,18.3914401 42.7786705,18.3914401 Z M57.0898476,18.4271901 C57.9063967,18.4271901 58.6464097,18.2157902 59.3093899,17.7930405 C59.9718731,17.3702407 60.495697,16.768841 60.8803646,15.9888414 C61.2650323,15.2087919 61.4573661,14.3066923 61.4573661,13.2825429 C61.4573661,12.2583934 61.2650323,11.3592439 60.8803646,10.5851943 C60.495697,9.81109474 59.9718731,9.21564506 59.3093899,8.79884528 C58.6464097,8.38204551 57.9063967,8.17364562 57.0898476,8.17364562 C56.4030121,8.17364562 55.7937065,8.31654554 55.2609369,8.60234539 C54.7281672,8.88819524 54.3196442,9.26329503 54.0358648,9.72774479 L54.0358648,5.24494719 C54.0358648,5.14579724 53.95585,5.06544728 53.8574466,5.06544728 L51.1781917,5.06544728 C51.0792914,5.06544728 50.9992765,5.14579724 50.9992765,5.24494719 L50.9992765,18.1047403 C50.9992765,18.2038902 51.0792914,18.2842902 51.1781917,18.2842902 L53.8574466,18.2842902 C53.95585,18.2842902 54.0358648,18.2038902 54.0358648,18.1047403 L54.0358648,16.890941 C54.3315719,17.3553907 54.7400949,17.7275405 55.2609369,18.0073904 C55.7817788,18.2872402 56.3910844,18.4271901 57.0898476,18.4271901 Z M56.184338,15.7655416 C55.5804993,15.7655416 55.068603,15.5452417 54.6481523,15.1045919 C54.2281986,14.6639921 54.0179733,14.0625925 54.0179733,13.3003929 C54.0179733,12.5382433 54.2281986,11.9368436 54.6481523,11.4961938 C55.068603,11.0555941 55.5804993,10.8352942 56.184338,10.8352942 C56.7996074,10.8352942 57.3174675,11.0525941 57.7379182,11.4872938 C58.1578719,11.9219436 58.3680972,12.5203933 58.3680972,13.2825429 C58.3680972,14.0446925 58.15489,14.6490922 57.7289724,15.0956919 C57.3025579,15.5422417 56.7876798,15.7655416 56.184338,15.7655416 Z M70.193397,18.1047403 L70.193397,15.9450915 C70.193397,15.8459415 70.1133822,15.7655416 70.0149788,15.7655416 L65.8964506,15.7655416 L70.1044364,10.7459442 L70.1044364,8.31654554 L62.7192151,8.31654554 C62.6208118,8.31654554 62.5407969,8.3969455 62.5407969,8.49609545 L62.5407969,10.6557443 C62.5407969,10.7548942 62.6208118,10.8352942 62.7192151,10.8352942 L66.624536,10.8352942 L62.5050139,15.8548415 L62.5050139,18.2842902 L70.0149788,18.2842902 C70.1133822,18.2842902 70.193397,18.2038902 70.193397,18.1047403 Z M79,18.1047403 L79,15.9450915 C79,15.8459415 78.9204821,15.7655416 78.8215818,15.7655416 L74.7035506,15.7655416 L78.9115364,10.7459442 L78.9115364,8.31654554 L71.5258181,8.31654554 C71.4274148,8.31654554 71.3473999,8.3969455 71.3473999,8.49609545 L71.3473999,10.6557443 C71.3473999,10.7548942 71.4274148,10.8352942 71.5258181,10.8352942 L75.431139,10.8352942 L71.3121139,15.8548415 L71.3121139,18.2842902 L78.8215818,18.2842902 C78.9204821,18.2842902 79,18.2038902 79,18.1047403 Z" id="Shape" fill="#FCFDFE"></path>
            <path d="M16.5065162,9.12749511 L11.5991709,11.9999936 L8.72961977,13.6242427 L15.2908372,17.4756906 L16.5065162,16.757541 L16.5065162,9.12749511 Z M6.88391084,15.7622916 L3.93284402,17.5121906 L9.77532933,20.9415888 L12.58062,19.1062398 L6.88391084,15.7622916 Z M9.40790712,3.05837836 L6.60261641,4.89375237 L12.2993256,8.23769558 L15.2503825,6.48779652 L9.40790712,3.05837836 Z M10.4536167,10.3757444 L3.89240919,6.5242965 L2.67673021,7.24244612 L2.67673021,14.872492 L7.5840656,11.9999936 L10.4536167,10.3757444 Z M19.0953195,18.4253901 L9.72632645,23.9751872 C9.67071365,24.0081371 9.60168221,24.0082871 9.54592031,23.9755372 L0.0885336944,18.4252901 C0.0337109507,18.3930901 0,18.3340902 0,18.2701902 L0,5.72929693 C0,5.66569696 0.0334391984,5.60684699 0.0879089822,5.57459701 L9.45691,0.0248242318 C9.5125228,-0.00814240054 9.58155425,-0.00828330047 9.63731615,0.024455832 L19.0947231,5.57469701 C19.1495408,5.60684699 19.1832365,5.66589696 19.1832365,5.72979693 L19.1832365,18.2706902 C19.1832365,18.3342902 19.1497893,18.3931401 19.0953195,18.4253901 Z" id="Shape" fill="url(#linearGradient-1)"></path>
        </g>
    </g>
</svg>