<svg width="70" height="24" xmlns="http://www.w3.org/2000/svg"><g fill="none" fill-rule="evenodd"><rect fill="#925FF0" width="24" height="24" rx="5.785"/><path d="m16.482 10.352-3.18 1.85-1.86 1.047 4.252 2.481.788-.463v-4.915Zm-6.237 4.274-1.913 1.128 3.787 2.209 1.818-1.182-3.692-2.155Zm1.636-8.184-1.818 1.182 3.692 2.155 1.913-1.128-3.787-2.21Zm.678 4.714L8.306 8.675l-.788.462v4.916l3.18-1.85 1.86-1.047Zm5.6 5.186-6.072 3.575a.116.116 0 0 1-.117 0l-6.13-3.575a.116.116 0 0 1-.057-.1v-8.08c0-.04.022-.078.057-.1l6.073-3.575a.116.116 0 0 1 .117 0l6.13 3.576c.035.02.057.059.057.1v8.08a.116.116 0 0 1-.057.099ZM34.294 17.014v-3.818c0-.487.126-.865.376-1.134.251-.27.588-.404 1.012-.404.423 0 .76.134 1.011.404.25.27.376.647.376 1.134v3.818a.13.13 0 0 0 .13.131h1.944a.13.13 0 0 0 .13-.13v-4.12c0-.964-.25-1.722-.752-2.274-.501-.551-1.167-.827-1.997-.827-.484 0-.92.095-1.309.286a2.373 2.373 0 0 0-.92.77V7.63a.13.13 0 0 0-.13-.13h-1.957a.13.13 0 0 0-.13.13v9.384a.13.13 0 0 0 .13.131h1.956a.13.13 0 0 0 .13-.13Zm9.258.21c.466 0 .892-.098 1.276-.294.385-.195.69-.454.915-.775v.86a.13.13 0 0 0 .13.13h1.956a.13.13 0 0 0 .13-.13v-7.012a.13.13 0 0 0-.13-.131h-1.956a.13.13 0 0 0-.13.13v3.82c0 .486-.126.864-.376 1.133-.251.27-.593.404-1.025.404-.423 0-.76-.134-1.011-.404-.25-.269-.376-.647-.376-1.134v-3.818a.13.13 0 0 0-.13-.131H40.88a.13.13 0 0 0-.13.13v4.12c0 .634.117 1.185.35 1.655.233.469.562.827.985 1.075.424.248.912.371 1.466.371Zm10.45.026c.596 0 1.136-.155 1.62-.463.484-.309.866-.748 1.147-1.317s.422-1.227.422-1.974c0-.748-.14-1.404-.422-1.969-.28-.565-.663-1-1.147-1.303a2.984 2.984 0 0 0-1.62-.456c-.502 0-.947.104-1.336.312-.39.209-.687.483-.895.822V7.63a.13.13 0 0 0-.13-.131h-1.956a.13.13 0 0 0-.13.13v9.384a.13.13 0 0 0 .13.131h1.956a.13.13 0 0 0 .13-.13v-.886c.216.338.515.61.895.814.38.204.825.307 1.335.307Zm-.662-1.943a1.49 1.49 0 0 1-1.121-.482c-.307-.321-.46-.76-.46-1.316 0-.557.153-.995.46-1.317a1.49 1.49 0 0 1 1.121-.482c.45 0 .828.158 1.135.476.306.317.46.753.46 1.31 0 .556-.156.997-.467 1.323a1.503 1.503 0 0 1-1.128.488Zm10.23 1.707v-1.576a.13.13 0 0 0-.131-.13h-3.007l3.073-3.663V9.872h-5.393a.13.13 0 0 0-.13.13v1.577a.13.13 0 0 0 .13.13h2.852l-3.009 3.664v1.772h5.484a.13.13 0 0 0 .13-.13Zm6.43 0v-1.576a.13.13 0 0 0-.13-.13h-3.007l3.072-3.663V9.872h-5.392a.13.13 0 0 0-.13.13v1.577a.13.13 0 0 0 .13.13h2.851l-3.008 3.664v1.772h5.484a.13.13 0 0 0 .13-.13Z" fill="#FFF" fill-rule="nonzero"/></g></svg>